<svg xmlns="http://www.w3.org/2000/svg" width="1350" height="436" viewBox="0 0 1350 436" font-family="'Segoe UI', 'Noto Sans', Arial, sans-serif">
<rect width="1350" height="436" fill="#ffffff"/>

<rect x="250" y="60" width="870" height="300" rx="10" fill="#eff6ff" stroke="#2563eb" stroke-width="1.5"/><text x="685" y="88" font-size="15" text-anchor="middle" fill="#2563eb" font-weight="700">Quản lý tài khoản</text><circle cx="150" cy="184" r="7" fill="none" stroke="#7c3aed" stroke-width="1.8"/>
<path d="M 150 191 L 150 214 M 138 200 L 150 204 L 162 200
         M 150 214 L 140 232 M 150 214 L 160 232"
      fill="none" stroke="#7c3aed" stroke-width="1.8" stroke-linecap="round"/>
<text x="150" y="250" font-size="12" text-anchor="middle" fill="#1f2937" font-weight="600">Khách</text><line x1="168" y1="190" x2="286" y2="151" stroke="#374151" stroke-width="1.1"/><line x1="168" y1="190" x2="566" y2="151" stroke="#374151" stroke-width="1.1"/><line x1="168" y1="190" x2="846" y2="151" stroke="#374151" stroke-width="1.1"/><line x1="168" y1="190" x2="566" y2="235" stroke="#374151" stroke-width="1.1"/><line x1="168" y1="190" x2="846" y2="235" stroke="#374151" stroke-width="1.1"/><circle cx="1220" cy="184" r="7" fill="none" stroke="#7c3aed" stroke-width="1.8"/>
<path d="M 1220 191 L 1220 214 M 1208 200 L 1220 204 L 1232 200
         M 1220 214 L 1210 232 M 1220 214 L 1230 232"
      fill="none" stroke="#7c3aed" stroke-width="1.8" stroke-linecap="round"/>
<text x="1220" y="250" font-size="12" text-anchor="middle" fill="#1f2937" font-weight="600">Admin</text><line x1="1202" y1="190" x2="524" y2="319" stroke="#374151" stroke-width="1.1"/><ellipse cx="405" cy="151" rx="125" ry="31" fill="#ffffff" stroke="#2563eb" stroke-width="1.5"/>
<text x="405" y="155" font-size="12" text-anchor="middle" fill="#1f2937" font-weight="400">Đăng ký tài khoản</text><ellipse cx="685" cy="151" rx="125" ry="31" fill="#ffffff" stroke="#2563eb" stroke-width="1.5"/>
<text x="685" y="155" font-size="12" text-anchor="middle" fill="#1f2937" font-weight="400">Đăng nhập</text><ellipse cx="965" cy="151" rx="125" ry="31" fill="#ffffff" stroke="#2563eb" stroke-width="1.5"/>
<text x="965" y="155" font-size="12" text-anchor="middle" fill="#1f2937" font-weight="400">Xem hồ sơ</text><ellipse cx="405" cy="235" rx="125" ry="31" fill="#ffffff" stroke="#2563eb" stroke-width="1.5"/>
<text x="405" y="239" font-size="12" text-anchor="middle" fill="#1f2937" font-weight="400">Cập nhật hồ sơ</text><ellipse cx="685" cy="235" rx="125" ry="31" fill="#ffffff" stroke="#2563eb" stroke-width="1.5"/>
<text x="685" y="239" font-size="12" text-anchor="middle" fill="#1f2937" font-weight="400">Đổi mật khẩu</text><ellipse cx="965" cy="235" rx="125" ry="31" fill="#ffffff" stroke="#2563eb" stroke-width="1.5"/>
<text x="965" y="239" font-size="12" text-anchor="middle" fill="#1f2937" font-weight="400">Đăng xuất</text><ellipse cx="405" cy="319" rx="125" ry="31" fill="#ffffff" stroke="#2563eb" stroke-width="1.5"/>
<text x="405" y="323" font-size="12" text-anchor="middle" fill="#1f2937" font-weight="400">Khoá / mở khoá tài khoản</text><text x="30" y="398" font-size="11" text-anchor="start" fill="#6b7280" font-weight="400">Đăng ký không cho tự chọn quyền — mọi tài khoản tự đăng ký đều là CUSTOMER.</text><text x="30" y="416" font-size="11" text-anchor="start" fill="#6b7280" font-weight="400">Mật khẩu lưu dạng BCrypt hash, không bao giờ lưu dạng thô.</text>
</svg>
