<svg xmlns="http://www.w3.org/2000/svg" width="975" height="634" viewBox="0 0 975 634" font-family="'Segoe UI', 'Noto Sans', Arial, sans-serif">
<rect width="975" height="634" fill="#ffffff"/>

<rect x="33" y="14" width="164" height="34" rx="6" fill="#eff6ff" stroke="#2563eb" stroke-width="1.5"/>
<text x="115" y="35" font-size="12" text-anchor="middle" fill="#1f2937" font-weight="600">Khách</text><line x1="115" y1="48" x2="115" y2="594" stroke="#9ca3af" stroke-width="1.1" stroke-dasharray="5 4"/><rect x="223" y="14" width="164" height="34" rx="6" fill="#fffbeb" stroke="#d97706" stroke-width="1.5"/>
<text x="305" y="35" font-size="12" text-anchor="middle" fill="#1f2937" font-weight="600">AuthController</text><line x1="305" y1="48" x2="305" y2="594" stroke="#9ca3af" stroke-width="1.1" stroke-dasharray="5 4"/><rect x="413" y="14" width="164" height="34" rx="6" fill="#fffbeb" stroke="#d97706" stroke-width="1.5"/>
<text x="495" y="35" font-size="12" text-anchor="middle" fill="#1f2937" font-weight="600">AuthService</text><line x1="495" y1="48" x2="495" y2="594" stroke="#9ca3af" stroke-width="1.1" stroke-dasharray="5 4"/><rect x="603" y="14" width="164" height="34" rx="6" fill="#eff6ff" stroke="#2563eb" stroke-width="1.5"/>
<text x="685" y="35" font-size="12" text-anchor="middle" fill="#1f2937" font-weight="600">HomeStayDbContext</text><line x1="685" y1="48" x2="685" y2="594" stroke="#9ca3af" stroke-width="1.1" stroke-dasharray="5 4"/><rect x="793" y="14" width="164" height="34" rx="6" fill="#eff6ff" stroke="#2563eb" stroke-width="1.5"/>
<text x="875" y="35" font-size="12" text-anchor="middle" fill="#1f2937" font-weight="600">MySQL</text><line x1="875" y1="48" x2="875" y2="594" stroke="#9ca3af" stroke-width="1.1" stroke-dasharray="5 4"/><line x1="115" y1="90" x2="305" y2="90" stroke="#374151" stroke-width="1.4"/>
<polygon points="305,90 298.7,93.0 298.7,87.0" fill="#374151"/>
<text x="216" y="85" font-size="11" text-anchor="start" fill="#6b7280" font-weight="400">POST /api/auth/login</text><line x1="305" y1="146" x2="495" y2="146" stroke="#374151" stroke-width="1.4"/>
<polygon points="495,146 488.7,149.0 488.7,143.0" fill="#374151"/>
<text x="406" y="141" font-size="11" text-anchor="start" fill="#6b7280" font-weight="400">DangNhapAsync(email, matKhau)</text><line x1="495" y1="202" x2="685" y2="202" stroke="#374151" stroke-width="1.4"/>
<polygon points="685,202 678.7,205.0 678.7,199.0" fill="#374151"/>
<text x="596" y="197" font-size="11" text-anchor="start" fill="#6b7280" font-weight="400">Tìm User theo email</text><line x1="685" y1="258" x2="875" y2="258" stroke="#374151" stroke-width="1.4"/>
<polygon points="875,258 868.7,261.0 868.7,255.0" fill="#374151"/>
<text x="786" y="253" font-size="11" text-anchor="start" fill="#6b7280" font-weight="400">SELECT … FROM Users</text><line x1="875" y1="314" x2="685" y2="314" stroke="#374151" stroke-width="1.4"/>
<polygon points="685,314 691.3,311.0 691.3,317.0" fill="#374151"/>
<text x="786" y="309" font-size="11" text-anchor="start" fill="#6b7280" font-weight="400">1 dòng + PasswordHash</text><line x1="685" y1="370" x2="495" y2="370" stroke="#374151" stroke-width="1.4"/>
<polygon points="495,370 501.3,367.0 501.3,373.0" fill="#374151"/>
<text x="596" y="365" font-size="11" text-anchor="start" fill="#6b7280" font-weight="400">User</text><line x1="495" y1="426" x2="495" y2="426" stroke="#374151" stroke-width="1.4" stroke-dasharray="4 3"/><line x1="495" y1="482" x2="305" y2="482" stroke="#374151" stroke-width="1.4"/>
<polygon points="305,482 311.3,479.0 311.3,485.0" fill="#374151"/>
<text x="406" y="477" font-size="11" text-anchor="start" fill="#6b7280" font-weight="400">TokenResponse</text><line x1="305" y1="538" x2="115" y2="538" stroke="#374151" stroke-width="1.4"/>
<polygon points="115,538 121.3,535.0 121.3,541.0" fill="#374151"/>
<text x="216" y="533" font-size="11" text-anchor="start" fill="#6b7280" font-weight="400">200 OK + accessToken</text><text x="20" y="618" font-size="13" text-anchor="start" fill="#1f2937" font-weight="600">Đăng nhập</text>
</svg>
