<svg xmlns="http://www.w3.org/2000/svg" width="1100" height="796" viewBox="0 0 1100 796" font-family="'Segoe UI', 'Noto Sans', Arial, sans-serif" role="img">
<title>Tìm kiếm phòng</title>
<rect width="1100" height="796" fill="#ffffff"/>

<rect x="48" y="196" width="984" height="500" fill="none" stroke="#374151" stroke-width="1"/><rect x="44" y="187" width="36" height="18" fill="#ffffff" stroke="#374151" stroke-width="1"/><text x="62" y="200" font-size="11" text-anchor="middle" fill="#1f2937" font-weight="400">alt</text><text x="78" y="218" font-size="10.5" text-anchor="start" fill="#1f2937" font-weight="400">[bộ lọc hợp lệ]</text><text x="78" y="233" font-size="10.5" text-anchor="start" fill="#1f2937" font-weight="400">[đếm tổng số rồi mới cắt trang]</text><circle cx="140" cy="40" r="7" fill="#1f9bd7"/>
<path d="M 140 48 L 140 68 M 131 54 L 140 60 L 149 54
         M 140 68 L 133 82 M 140 68 L 147 82"
      fill="none" stroke="#1f9bd7" stroke-width="2" stroke-linecap="round"/><text x="140" y="88" font-size="12" text-anchor="middle" fill="#1f2937" font-weight="600">Khách</text><line x1="140" y1="96" x2="140" y2="758" stroke="#9ca3af" stroke-width="1.1" stroke-dasharray="5 4"/><line x1="320" y1="58" x2="360" y2="58" stroke="#1f2937" stroke-width="1.4"/>
<circle cx="340" cy="46" r="12" fill="#1f9bd7" stroke="#1f2937" stroke-width="1.4"/><text x="340" y="88" font-size="12" text-anchor="middle" fill="#1f2937" font-weight="600">RoomsController</text><line x1="340" y1="96" x2="340" y2="758" stroke="#9ca3af" stroke-width="1.1" stroke-dasharray="5 4"/><line x1="520" y1="58" x2="560" y2="58" stroke="#1f2937" stroke-width="1.4"/>
<circle cx="540" cy="46" r="12" fill="#1f9bd7" stroke="#1f2937" stroke-width="1.4"/><text x="540" y="88" font-size="12" text-anchor="middle" fill="#1f2937" font-weight="600">RoomService</text><line x1="540" y1="96" x2="540" y2="758" stroke="#9ca3af" stroke-width="1.1" stroke-dasharray="5 4"/><line x1="720" y1="58" x2="760" y2="58" stroke="#1f2937" stroke-width="1.4"/>
<circle cx="740" cy="46" r="12" fill="#1f9bd7" stroke="#1f2937" stroke-width="1.4"/><text x="740" y="88" font-size="12" text-anchor="middle" fill="#1f2937" font-weight="600">HomeStayDbContext</text><line x1="740" y1="96" x2="740" y2="758" stroke="#9ca3af" stroke-width="1.1" stroke-dasharray="5 4"/><line x1="920" y1="58" x2="960" y2="58" stroke="#1f2937" stroke-width="1.4"/>
<circle cx="940" cy="46" r="12" fill="#1f9bd7" stroke="#1f2937" stroke-width="1.4"/><text x="940" y="88" font-size="12" text-anchor="middle" fill="#1f2937" font-weight="600">MySQL</text><line x1="940" y1="96" x2="940" y2="758" stroke="#9ca3af" stroke-width="1.1" stroke-dasharray="5 4"/><rect x="334" y="104" width="12" height="578" fill="#b3e0f5" stroke="#1f9bd7" stroke-width="1"/><rect x="534" y="158" width="12" height="470" fill="#b3e0f5" stroke="#1f9bd7" stroke-width="1"/><rect x="734" y="212" width="12" height="146" fill="#b3e0f5" stroke="#1f9bd7" stroke-width="1"/><rect x="934" y="266" width="12" height="38" fill="#b3e0f5" stroke="#1f9bd7" stroke-width="1"/><rect x="934" y="482" width="12" height="38" fill="#b3e0f5" stroke="#1f9bd7" stroke-width="1"/><line x1="140" y1="126" x2="340" y2="126" stroke="#374151" stroke-width="1.2"/><polygon points="340,126 332.6,122.6 332.6,129.4" fill="#374151"/><rect x="82.0" y="112" width="316.0" height="14" fill="#ffffff"/><text x="240" y="122" font-size="11" text-anchor="middle" fill="#1f2937" font-weight="400">1: GET /api/rooms/search?coSo&amp;vaoLuc&amp;raLuc&amp;soKhach&amp;page</text><line x1="340" y1="180" x2="540" y2="180" stroke="#374151" stroke-width="1.2"/><polygon points="540,180 532.6,176.6 532.6,183.4" fill="#374151"/><rect x="324.0" y="166" width="232.0" height="14" fill="#ffffff"/><text x="440" y="176" font-size="11" text-anchor="middle" fill="#1f2937" font-weight="400">1: TimPhongAsync(bộ lọc, page, pageSize)</text><line x1="540" y1="234" x2="740" y2="234" stroke="#374151" stroke-width="1.2"/><polygon points="740,234 732.6,230.6 732.6,237.4" fill="#374151"/><rect x="571.6" y="220" width="136.8" height="14" fill="#ffffff"/><text x="640" y="230" font-size="11" text-anchor="middle" fill="#1f2937" font-weight="400">1: Rooms JOIN Locations</text><line x1="740" y1="288" x2="940" y2="288" stroke="#374151" stroke-width="1.2"/><polygon points="940,288 932.6,284.6 932.6,291.4" fill="#374151"/><rect x="707.2" y="274" width="265.6" height="14" fill="#ffffff"/><text x="840" y="284" font-size="11" text-anchor="middle" fill="#1f2937" font-weight="400">1: SELECT … WHERE trạng thái &amp; thời gian &amp; giá</text><line x1="940" y1="342" x2="740" y2="342" stroke="#374151" stroke-width="1.2" stroke-dasharray="6 4"/><polygon points="740,342 747.4,338.6 747.4,345.4" fill="#374151"/><rect x="768.8" y="328" width="142.4" height="14" fill="#ffffff"/><text x="840" y="338" font-size="11" text-anchor="middle" fill="#1f2937" font-weight="400">2: return danh sách dòng</text><line x1="740" y1="396" x2="540" y2="396" stroke="#374151" stroke-width="1.2" stroke-dasharray="6 4"/><polygon points="540,396 547.4,392.6 547.4,399.4" fill="#374151"/><rect x="560.4" y="382" width="159.2" height="14" fill="#ffffff"/><text x="640" y="392" font-size="11" text-anchor="middle" fill="#1f2937" font-weight="400">2: return IQueryable&lt;Phong&gt;</text><path d="M 546 450 L 574 450 L 574 470 L 546 470" fill="none" stroke="#374151" stroke-width="1.1"/><polygon points="546,470 553,467 553,473" fill="#374151"/><rect x="580.0" y="434" width="220.8" height="14" fill="#ffffff"/><text x="580" y="444" font-size="11" text-anchor="start" fill="#1f2937" font-weight="400">3: Sắp xếp: giá ↑ hoặc điểm đánh giá ↓</text><line x1="540" y1="504" x2="940" y2="504" stroke="#374151" stroke-width="1.2"/><polygon points="940,504 932.6,500.6 932.6,507.4" fill="#374151"/><rect x="624.0" y="490" width="232.0" height="14" fill="#ffffff"/><text x="740" y="500" font-size="11" text-anchor="middle" fill="#1f2937" font-weight="400">1: SELECT COUNT(*) để biết tổng số trang</text><line x1="940" y1="558" x2="540" y2="558" stroke="#374151" stroke-width="1.2" stroke-dasharray="6 4"/><polygon points="540,558 547.4,554.6 547.4,561.4" fill="#374151"/><rect x="666.0" y="544" width="148.0" height="14" fill="#ffffff"/><text x="740" y="554" font-size="11" text-anchor="middle" fill="#1f2937" font-weight="400">4: return tổng số bản ghi</text><path d="M 546 612 L 574 612 L 574 632 L 546 632" fill="none" stroke="#374151" stroke-width="1.1"/><polygon points="546,632 553,629 553,635" fill="#374151"/><rect x="580.0" y="596" width="254.4" height="14" fill="#ffffff"/><text x="580" y="606" font-size="11" text-anchor="start" fill="#1f2937" font-weight="400">5: Cắt trang: Skip((page-1)*size).Take(size)</text><line x1="540" y1="666" x2="340" y2="666" stroke="#374151" stroke-width="1.2" stroke-dasharray="6 4"/><polygon points="340,666 347.4,662.6 347.4,669.4" fill="#374151"/><rect x="335.2" y="652" width="209.6" height="14" fill="#ffffff"/><text x="440" y="662" font-size="11" text-anchor="middle" fill="#1f2937" font-weight="400">2: return PagedResult&lt;RoomSearchDto&gt;</text><line x1="340" y1="720" x2="140" y2="720" stroke="#374151" stroke-width="1.2" stroke-dasharray="6 4"/><polygon points="140,720 147.4,716.6 147.4,723.4" fill="#374151"/><rect x="135.2" y="706" width="209.6" height="14" fill="#ffffff"/><text x="240" y="716" font-size="11" text-anchor="middle" fill="#1f2937" font-weight="400">1: return 200 OK — không kèm khoá Id</text><text x="20" y="782" font-size="11" text-anchor="start" fill="#1f2937" font-weight="400">Mũi tên liền = lời gọi · nét đứt = trả về · thanh xanh dọc đường đời = đối tượng đang xử lý.</text>
</svg>
