<svg xmlns="http://www.w3.org/2000/svg" width="1100" height="1228" viewBox="0 0 1100 1228" font-family="'Segoe UI', 'Noto Sans', Arial, sans-serif" role="img">
<title>Quản lý phòng</title>
<rect width="1100" height="1228" fill="#ffffff"/>

<rect x="48" y="952" width="984" height="176" fill="none" stroke="#374151" stroke-width="1"/><rect x="44" y="943" width="36" height="18" fill="#ffffff" stroke="#374151" stroke-width="1"/><text x="62" y="956" font-size="11" text-anchor="middle" fill="#1f2937" font-weight="400">alt</text><text x="78" y="974" font-size="10.5" text-anchor="start" fill="#1f2937" font-weight="400">[phòng còn đơn]</text><text x="78" y="989" font-size="10.5" text-anchor="start" fill="#1f2937" font-weight="400">[từ chối xoá, trả 400]</text><circle cx="140" cy="40" r="7" fill="#1f9bd7"/>
<path d="M 140 48 L 140 68 M 131 54 L 140 60 L 149 54
         M 140 68 L 133 82 M 140 68 L 147 82"
      fill="none" stroke="#1f9bd7" stroke-width="2" stroke-linecap="round"/><text x="140" y="88" font-size="12" text-anchor="middle" fill="#1f2937" font-weight="600">Admin</text><line x1="140" y1="96" x2="140" y2="1190" stroke="#9ca3af" stroke-width="1.1" stroke-dasharray="5 4"/><line x1="320" y1="58" x2="360" y2="58" stroke="#1f2937" stroke-width="1.4"/>
<circle cx="340" cy="46" r="12" fill="#1f9bd7" stroke="#1f2937" stroke-width="1.4"/><text x="340" y="88" font-size="12" text-anchor="middle" fill="#1f2937" font-weight="600">AdminRoomsController</text><line x1="340" y1="96" x2="340" y2="1190" stroke="#9ca3af" stroke-width="1.1" stroke-dasharray="5 4"/><line x1="520" y1="58" x2="560" y2="58" stroke="#1f2937" stroke-width="1.4"/>
<circle cx="540" cy="46" r="12" fill="#1f9bd7" stroke="#1f2937" stroke-width="1.4"/><text x="540" y="88" font-size="12" text-anchor="middle" fill="#1f2937" font-weight="600">AdminRoomService</text><line x1="540" y1="96" x2="540" y2="1190" stroke="#9ca3af" stroke-width="1.1" stroke-dasharray="5 4"/><line x1="720" y1="58" x2="760" y2="58" stroke="#1f2937" stroke-width="1.4"/>
<circle cx="740" cy="46" r="12" fill="#1f9bd7" stroke="#1f2937" stroke-width="1.4"/><text x="740" y="88" font-size="12" text-anchor="middle" fill="#1f2937" font-weight="600">HomeStayDbContext</text><line x1="740" y1="96" x2="740" y2="1190" stroke="#9ca3af" stroke-width="1.1" stroke-dasharray="5 4"/><line x1="920" y1="58" x2="960" y2="58" stroke="#1f2937" stroke-width="1.4"/>
<circle cx="940" cy="46" r="12" fill="#1f9bd7" stroke="#1f2937" stroke-width="1.4"/><text x="940" y="88" font-size="12" text-anchor="middle" fill="#1f2937" font-weight="600">MySQL</text><line x1="940" y1="96" x2="940" y2="1190" stroke="#9ca3af" stroke-width="1.1" stroke-dasharray="5 4"/><rect x="334" y="104" width="12" height="1064" fill="#b3e0f5" stroke="#1f9bd7" stroke-width="1"/><rect x="534" y="158" width="12" height="524" fill="#b3e0f5" stroke="#1f9bd7" stroke-width="1"/><rect x="734" y="266" width="12" height="254" fill="#b3e0f5" stroke="#1f9bd7" stroke-width="1"/><rect x="934" y="428" width="12" height="38" fill="#b3e0f5" stroke="#1f9bd7" stroke-width="1"/><rect x="934" y="590" width="12" height="38" fill="#b3e0f5" stroke="#1f9bd7" stroke-width="1"/><rect x="934" y="806" width="12" height="92" fill="#b3e0f5" stroke="#1f9bd7" stroke-width="1"/><rect x="534" y="860" width="12" height="38" fill="#b3e0f5" stroke="#1f9bd7" stroke-width="1"/><rect x="934" y="1022" width="12" height="92" fill="#b3e0f5" stroke="#1f9bd7" stroke-width="1"/><rect x="534" y="1076" width="12" height="38" fill="#b3e0f5" stroke="#1f9bd7" stroke-width="1"/><line x1="140" y1="126" x2="340" y2="126" stroke="#374151" stroke-width="1.2"/><polygon points="340,126 332.6,122.6 332.6,129.4" fill="#374151"/><rect x="168.8" y="112" width="142.4" height="14" fill="#ffffff"/><text x="240" y="122" font-size="11" text-anchor="middle" fill="#1f2937" font-weight="400">1: POST /api/admin/rooms</text><line x1="340" y1="180" x2="540" y2="180" stroke="#374151" stroke-width="1.2"/><polygon points="540,180 532.6,176.6 532.6,183.4" fill="#374151"/><rect x="368.8" y="166" width="142.4" height="14" fill="#ffffff"/><text x="440" y="176" font-size="11" text-anchor="middle" fill="#1f2937" font-weight="400">1: TaoPhongAsync(yeuCau)</text><path d="M 546 234 L 574 234 L 574 254 L 546 254" fill="none" stroke="#374151" stroke-width="1.1"/><polygon points="546,254 553,251 553,257" fill="#374151"/><rect x="580.0" y="218" width="232.0" height="14" fill="#ffffff"/><text x="580" y="228" font-size="11" text-anchor="start" fill="#1f2937" font-weight="400">2: Kiểm tra mã phòng chưa có trong cơ sở</text><line x1="540" y1="288" x2="740" y2="288" stroke="#374151" stroke-width="1.2"/><polygon points="740,288 732.6,284.6 732.6,291.4" fill="#374151"/><rect x="582.8" y="274" width="114.4" height="14" fill="#ffffff"/><text x="640" y="284" font-size="11" text-anchor="middle" fill="#1f2937" font-weight="400">1: Rooms.Add(phong)</text><line x1="540" y1="342" x2="740" y2="342" stroke="#374151" stroke-width="1.2"/><polygon points="740,342 732.6,338.6 732.6,345.4" fill="#374151"/><rect x="524.0" y="328" width="232.0" height="14" fill="#ffffff"/><text x="640" y="338" font-size="11" text-anchor="middle" fill="#1f2937" font-weight="400">2: RoomAmenities.Add(liên kết tiện nghi)</text><line x1="540" y1="396" x2="740" y2="396" stroke="#374151" stroke-width="1.2"/><polygon points="740,396 732.6,392.6 732.6,399.4" fill="#374151"/><rect x="574.4" y="382" width="131.2" height="14" fill="#ffffff"/><text x="640" y="392" font-size="11" text-anchor="middle" fill="#1f2937" font-weight="400">3: RoomImages.Add(ảnh)</text><line x1="740" y1="450" x2="940" y2="450" stroke="#374151" stroke-width="1.2"/><polygon points="940,450 932.6,446.6 932.6,453.4" fill="#374151"/><rect x="749.2" y="436" width="181.6" height="14" fill="#ffffff"/><text x="840" y="446" font-size="11" text-anchor="middle" fill="#1f2937" font-weight="400">1: INSERT Rooms, tiện nghi, ảnh</text><line x1="940" y1="504" x2="740" y2="504" stroke="#374151" stroke-width="1.2" stroke-dasharray="6 4"/><polygon points="740,504 747.4,500.6 747.4,507.4" fill="#374151"/><rect x="785.6" y="490" width="108.8" height="14" fill="#ffffff"/><text x="840" y="500" font-size="11" text-anchor="middle" fill="#1f2937" font-weight="400">4: return khoá mới</text><line x1="740" y1="558" x2="540" y2="558" stroke="#374151" stroke-width="1.2" stroke-dasharray="6 4"/><polygon points="540,558 547.4,554.6 547.4,561.4" fill="#374151"/><rect x="580.0" y="544" width="120.0" height="14" fill="#ffffff"/><text x="640" y="554" font-size="11" text-anchor="middle" fill="#1f2937" font-weight="400">3: return số bản ghi</text><line x1="540" y1="612" x2="940" y2="612" stroke="#374151" stroke-width="1.2"/><polygon points="940,612 932.6,608.6 932.6,615.4" fill="#374151"/><rect x="677.2" y="598" width="125.6" height="14" fill="#ffffff"/><text x="740" y="608" font-size="11" text-anchor="middle" fill="#1f2937" font-weight="400">1: SaveChangesAsync()</text><line x1="940" y1="666" x2="540" y2="666" stroke="#374151" stroke-width="1.2" stroke-dasharray="6 4"/><polygon points="540,666 547.4,662.6 547.4,669.4" fill="#374151"/><rect x="702.4" y="652" width="75.2" height="14" fill="#ffffff"/><text x="740" y="662" font-size="11" text-anchor="middle" fill="#1f2937" font-weight="400">4: return OK</text><line x1="540" y1="720" x2="340" y2="720" stroke="#374151" stroke-width="1.2" stroke-dasharray="6 4"/><polygon points="340,720 347.4,716.6 347.4,723.4" fill="#374151"/><rect x="377.2" y="706" width="125.6" height="14" fill="#ffffff"/><text x="440" y="716" font-size="11" text-anchor="middle" fill="#1f2937" font-weight="400">2: return 201 Created</text><line x1="140" y1="774" x2="340" y2="774" stroke="#374151" stroke-width="1.2"/><polygon points="340,774 332.6,770.6 332.6,777.4" fill="#374151"/><rect x="132.4" y="760" width="215.2" height="14" fill="#ffffff"/><text x="240" y="770" font-size="11" text-anchor="middle" fill="#1f2937" font-weight="400">3: PATCH /api/admin/rooms/{id}/status</text><line x1="540" y1="828" x2="940" y2="828" stroke="#374151" stroke-width="1.2"/><polygon points="940,828 932.6,824.6 932.6,831.4" fill="#374151"/><rect x="654.8" y="814" width="170.4" height="14" fill="#ffffff"/><text x="740" y="824" font-size="11" text-anchor="middle" fill="#1f2937" font-weight="400">1: UPDATE Rooms SET trangThai</text><line x1="940" y1="882" x2="540" y2="882" stroke="#374151" stroke-width="1.2" stroke-dasharray="6 4"/><polygon points="540,882 547.4,878.6 547.4,885.4" fill="#374151"/><rect x="702.4" y="868" width="75.2" height="14" fill="#ffffff"/><text x="740" y="878" font-size="11" text-anchor="middle" fill="#1f2937" font-weight="400">1: return OK</text><line x1="540" y1="936" x2="340" y2="936" stroke="#374151" stroke-width="1.2" stroke-dasharray="6 4"/><polygon points="340,936 347.4,932.6 347.4,939.4" fill="#374151"/><rect x="391.2" y="922" width="97.6" height="14" fill="#ffffff"/><text x="440" y="932" font-size="11" text-anchor="middle" fill="#1f2937" font-weight="400">4: return 200 OK</text><line x1="140" y1="990" x2="340" y2="990" stroke="#374151" stroke-width="1.2"/><polygon points="340,990 332.6,986.6 332.6,993.4" fill="#374151"/><rect x="149.2" y="976" width="181.6" height="14" fill="#ffffff"/><text x="240" y="986" font-size="11" text-anchor="middle" fill="#1f2937" font-weight="400">5: DELETE /api/admin/rooms/{id}</text><line x1="540" y1="1044" x2="940" y2="1044" stroke="#374151" stroke-width="1.2"/><polygon points="940,1044 932.6,1040.6 932.6,1047.4" fill="#374151"/><rect x="621.2" y="1030" width="237.6" height="14" fill="#ffffff"/><text x="740" y="1040" font-size="11" text-anchor="middle" fill="#1f2937" font-weight="400">1: Kiểm tra còn đơn chưa hoàn thành không</text><line x1="940" y1="1098" x2="540" y2="1098" stroke="#374151" stroke-width="1.2" stroke-dasharray="6 4"/><polygon points="540,1098 547.4,1094.6 547.4,1101.4" fill="#374151"/><rect x="657.6" y="1084" width="164.8" height="14" fill="#ffffff"/><text x="740" y="1094" font-size="11" text-anchor="middle" fill="#1f2937" font-weight="400">1: return còn đơn hoặc không</text><line x1="540" y1="1152" x2="340" y2="1152" stroke="#374151" stroke-width="1.2" stroke-dasharray="6 4"/><polygon points="340,1152 347.4,1148.6 347.4,1155.4" fill="#374151"/><rect x="338.0" y="1138" width="204.0" height="14" fill="#ffffff"/><text x="440" y="1148" font-size="11" text-anchor="middle" fill="#1f2937" font-weight="400">6: return 200 OK hoặc 400 "còn đơn"</text><text x="20" y="1214" font-size="11" text-anchor="start" fill="#1f2937" font-weight="400">Mũi tên liền = lời gọi · nét đứt = trả về · thanh xanh dọc đường đời = đối tượng đang xử lý.</text>
</svg>
